<svg width="35" height="35" viewBox="0 0 35 35" fill="none" xmlns="http://www.w3.org/2000/svg" aria-hidden="true">
    <path d="M17.5 3C9.492 3 3 9.492 3 17.5c0 2.779.782 5.375 2.139 7.581L3.25 31.75l6.826-1.889A14.43 14.43 0 0 0 17.5 32c8.008 0 14.5-6.492 14.5-14.5S25.508 3 17.5 3Z" stroke="#9EA08A" stroke-width="2" stroke-linecap="round" stroke-linejoin="round"/>
    <path d="M13.164 11.225c-.286-.636-.584-.649-.857-.66a7.597 7.597 0 0 0-.727-.015c-.252 0-.661.095-1.007.474-.346.379-1.322 1.291-1.322 3.149 0 1.858 1.353 3.653 1.542 3.906.189.253 2.614 4.187 6.455 5.697 3.191 1.254 3.84 1.005 4.535.942.693-.063 2.236-.912 2.55-1.794.314-.882.314-1.637.22-1.795-.094-.157-.346-.252-.724-.44-.378-.19-2.236-1.102-2.582-1.228-.347-.126-.599-.189-.85.19-.252.377-.976 1.227-1.196 1.48-.22.252-.44.283-.818.094-.378-.19-1.596-.588-3.04-1.874-1.123-1-1.881-2.236-2.101-2.614-.22-.378-.024-.583.165-.772.17-.17.378-.44.567-.66.19-.221.252-.379.378-.631.126-.252.063-.472-.032-.661-.094-.19-.818-2.047-1.158-2.788Z" stroke="#9EA08A" stroke-width="1.7" stroke-linecap="round" stroke-linejoin="round"/>
</svg>
